<?xml version="1.0" encoding="utf-8"?>
<!-- Generator: Adobe Illustrator 27.3.1, SVG Export Plug-In . SVG Version: 6.00 Build 0)  -->
<svg version="1.1" id="Layer_1" xmlns="http://www.w3.org/2000/svg" xmlns:xlink="http://www.w3.org/1999/xlink" x="0px" y="0px"
	 viewBox="0 0 161 50" style="enable-background:new 0 0 161 50;" xml:space="preserve">
<style type="text/css">
	.st0{fill:#FFFFFF;}
</style>
<g>
	<path class="st0" d="M4.61,38.41l21.55-15.33c2.33-1.71,3.27-3.27,3.27-4.9c0-1.63-1.01-2.88-2.88-2.88c-2.02,0-3.42,1.4-3.42,5.21
		c0,1.01-0.62,1.63-1.4,1.63H6.94c-0.86,0-1.56-0.7-1.56-1.56c0-10.12,5.6-20.07,21.24-20.07c13.85,0,20.54,8.48,20.54,16.73
		c0,6.3-2.65,10.82-7.63,14.47l-1.56,1.17c-0.62,0.47-1.87,0.93-1.87,0.93v0.16h10.74c0.47,0,1.09,0.62,1.09,1.09v11.83
		c0,0.47-0.62,1.09-1.09,1.09H4.61V38.41z"/>
	<g>
		<path class="st0" d="M50.67,27.86l10.12,4.12c1.01,0.47,2.18,0.23,2.88,0c0.54-0.2,1.1-0.4,1.67-0.6
			c0.91-2.09,2.37-3.89,4.25-5.34c0.39-0.32,0.88-0.63,1.21-0.74c-2.05,0.17-3.29,0.07-4.54,0.49c-0.14,0.05-0.26-0.1-0.19-0.23
			c1.34-2.53,4.4-3.77,6.57-2.93C71.16,21.36,70,20.33,70,20.33l2.02-1.67c0,0,1.29,1.91,2.24,3.3c1.24-2.77,4.31-3.54,5.93-2.02
			c0.1,0.09,0.04,0.25-0.09,0.27c-1.07,0.16-1.47,1.28-1.38,2.03l0.93-0.12c3.54-0.45,6.85,0.12,9.56,1.63
			c-2.65-3.99-7.62-6.54-15.04-6.54c-3.74,0-6.3,0.78-6.3,0.78l-0.16-0.08l0.31-3.03h18.44c0.47,0,1.09-0.62,1.09-1.09V2.73
			c0-0.47-0.62-1.09-1.09-1.09H52.93l-3.35,24.51C49.43,27.24,50.21,27.71,50.67,27.86z"/>
		<path class="st0" d="M64.76,40.01c-0.56-2.31-0.57-4.45-0.15-6.39H50.83c-0.93,0-1.95,0.86-1.95,1.79c0,0.23,0,1.24,0.16,1.87
			c2.02,8.01,10.95,11.83,21.06,11.83c0.56,0-0.57-0.02-0.03-0.04C66.44,47.41,65.81,44.38,64.76,40.01z"/>
	</g>
	<g>
		<path class="st0" d="M123.15,35.52c1.58,0,3.27-0.28,4.61-1.71l-2.45-2.3c-0.51,0.68-1.23,0.8-2.21,0.8
			c-0.83,0-1.72-0.46-1.91-1.26h6.7l0.02-0.95c0-1.45-0.44-2.67-1.31-3.69c-0.87-1.02-2.12-1.51-3.71-1.51
			c-1.53,0-2.8,0.5-3.77,1.51c-0.97,1-1.45,2.28-1.45,3.88c0,1.62,0.52,2.9,1.56,3.84C120.27,35.04,121.57,35.52,123.15,35.52z
			 M122.82,27.8c0.95,0,1.49,0.56,1.55,1.3h-3.18C121.36,28.33,121.96,27.8,122.82,27.8z"/>
		<path class="st0" d="M142.63,38.99c-1.53,0-2.8,0.5-3.77,1.51c-0.97,1-1.45,2.28-1.45,3.88c0,1.62,0.52,2.9,1.56,3.84
			c1.04,0.93,2.34,1.41,3.92,1.41c1.58,0,3.27-0.28,4.61-1.71l-2.45-2.3c-0.51,0.68-1.23,0.8-2.21,0.8c-0.83,0-1.72-0.46-1.91-1.27
			h6.7l0.02-0.95c0-1.45-0.44-2.67-1.31-3.69C145.47,39.49,144.23,38.99,142.63,38.99z M140.93,43.21c0.16-0.77,0.77-1.3,1.62-1.3
			c0.95,0,1.49,0.56,1.55,1.3H140.93z"/>
		<path class="st0" d="M89.18,32.76c1.35-0.81,2.03-2.1,2.03-3.82c0-2.98-2.03-4.68-5.57-4.68h-5.52v13.27h4.02v-4.31h0.67
			l2.52,4.31h4.53l-2.8-4.7L89.18,32.76z M85.29,30.15h-1.15v-2.8h1.15c1.12,0,1.84,0.53,1.84,1.35
			C87.12,29.62,86.45,30.15,85.29,30.15z"/>
		<path class="st0" d="M84.38,39.17c-1.34-0.26-2.08-0.22-3.31,0.05c-2.21,0.59-3.86,2.31-3.86,5.09c0,3.49,2.67,5.32,5.61,5.32
			c2.94,0,5.47-1.83,5.47-5.32C88.29,41.45,86.68,39.7,84.38,39.17z M82.75,45.92c-0.97,0-1.84-0.74-1.84-1.75
			c0-1.03,0.87-1.77,1.84-1.77c0.99,0,1.84,0.73,1.84,1.77C84.59,45.22,83.75,45.92,82.75,45.92z"/>
		<path class="st0" d="M101.38,39.02c-1.23,0-2.06,0.35-2.79,1.18l-0.12,0.13l-0.11-0.14c-0.61-0.78-1.57-1.2-2.77-1.2
			c-1.46,0-2.51,0.66-2.78,1.21l0-0.95h-3.86v10.11h3.89v-4.94c0-0.44,0-0.59,0.07-1c0.04-0.15,0.09-0.35,0.17-0.47
			c0.11-0.18,0.38-0.38,0.8-0.38c0.74,0,1.12,0.44,1.12,1.3v5.49h4.01v-4.94c0-0.54,0.02-0.8,0.15-1.25c0.05-0.15,0.19-0.6,0.92-0.6
			c0.73,0,1.1,0.44,1.1,1.3v5.49h3.13h0.93v-1.26v-4.58C105.24,39.46,102.54,39.02,101.38,39.02z"/>
		<path class="st0" d="M124.63,49.44l0.23-0.01v-3.46h-1.27c-0.49,0-0.7-0.21-0.7-0.7v-2.53h1.58v-3.48h-1.58V36.5h-4v2.75h-1.05
			v3.48h1.05v2.79c0,2.61,1.54,3.95,4.22,3.95C123.68,49.48,124.22,49.46,124.63,49.44z"/>
		<polygon class="st0" points="78.54,36.1 67.76,36.1 67.76,39.93 71.2,39.93 71.2,49.37 75.1,49.37 75.1,39.93 78.54,39.93 		"/>
		<path class="st0" d="M111.36,33.7c0,2.6,1.54,3.95,4.22,3.95c0.57,0,1.11-0.02,1.52-0.04l0.23-0.01v-3.46h-1.27
			c-0.49,0-0.7-0.21-0.7-0.7v-2.53h1.58v-3.48h-1.58v-2.75h-4v2.75h-1.04v3.48h1.04V33.7z"/>
		<path class="st0" d="M103.96,27.42h-1.04v3.48h1.04v2.79c0,2.6,1.54,3.95,4.22,3.95c0.13,0,0.26,0,0.39,0
			c0.42-0.01,0.82-0.02,1.13-0.04l0.23-0.01v-3.46h-1.27c-0.17,0-0.3-0.03-0.4-0.08c-0.2-0.1-0.3-0.3-0.3-0.62v-0.76V30.9h1.58
			v-3.48h-1.58v-2.75h-3.92h-0.08V27.42z"/>
		<path class="st0" d="M113.2,48.22v1.13h3.88V39.28h-3.88v1.16l-0.25-0.28c-0.7-0.77-1.58-1.17-2.55-1.17
			c-0.64,0-1.31,0.18-1.94,0.53c-0.04,0.02-0.09,0.05-0.13,0.07c-1.51,0.87-2.41,2.63-2.41,4.71c0,0.76,0.12,1.48,0.35,2.13
			c0.39,1.13,1.1,2.04,2.06,2.6c0.68,0.39,1.4,0.6,2.09,0.6c0.96,0,1.84-0.39,2.54-1.14L113.2,48.22z M111.47,45.99
			c-0.83,0-1.67-0.57-1.67-1.67c0-0.44,0.15-0.84,0.42-1.15c0.31-0.34,0.74-0.53,1.26-0.53c0.83,0,1.67,0.58,1.67,1.67
			c0,0.44-0.15,0.84-0.42,1.15C112.42,45.8,111.98,45.99,111.47,45.99z"/>
		<path class="st0" d="M132.63,32.66c0-1.59,0.47-1.9,1.22-1.9c0.72,0,1.09,0.43,1.09,1.28v5.5h4.03V31.7
			c0-2.89-1.37-4.54-3.77-4.54c-1.17,0-2.35,0.84-2.62,1.45v-1.17h-4v10.09h4.04V32.66z"/>
		<path class="st0" d="M154.88,43.12c-1.51-0.54-2.31-0.32-2.82-0.39c-0.5-0.07-0.6-0.73,0.08-0.86c0.58-0.11,1.41,0.06,3.02,0.71
			l1.46-2.41l-0.29-0.19c-1.38-0.71-2.49-1.04-4.03-0.97c-1.18,0.05-1.98,0.4-2.81,1.02c-0.86,0.65-1.3,1.51-1.3,2.56
			c0,1.22,0.68,1.96,1.71,2.6c1.48,0.69,2.48,0.59,2.99,0.57c0.66-0.02,0.57,0.87-0.22,0.93c-0.36,0.03-1.31,0.21-3.16-0.98
			l-1.6,2.65l0.23,0.16c1.23,0.81,2.61,1.16,4.3,1.16c1.31,0,2.39-0.35,3.21-1.02c0.87-0.7,1.31-1.61,1.31-2.71
			C156.97,44.5,156.19,43.64,154.88,43.12z"/>
		<path class="st0" d="M98.64,27.33c-1.34-0.26-2.24-0.22-3.47,0.05c-2.21,0.59-3.86,2.31-3.86,5.09c0,3.49,2.57,5.32,5.69,5.32
			s5.54-1.83,5.54-5.32C102.55,29.61,100.94,27.87,98.64,27.33z M99.96,35.36c-1.41,0.07-1.69-1.54-2.25-1.52
			c-0.23,0-0.42,0.25-0.34,0.54c0.04,0.16,0.17,0.39,0.25,0.53c0.28,0.51-0.13,1.08-0.61,1.13c-0.79,0.08-1.12-0.38-1.1-0.85
			c0.02-0.53,0.47-1.07,0.01-1.3c-0.48-0.24-0.87,0.7-1.33,0.91c-0.42,0.19-1,0.04-1.2-0.42c-0.14-0.33-0.12-0.95,0.53-1.19
			c0.4-0.15,1.3,0.2,1.34-0.24c0.05-0.5-0.94-0.55-1.24-0.67c-0.53-0.21-0.84-0.67-0.6-1.16c0.18-0.37,0.72-0.52,1.14-0.36
			c0.49,0.19,0.57,0.71,0.83,0.92c0.22,0.18,0.52,0.21,0.71,0.08c0.14-0.09,0.19-0.3,0.14-0.49c-0.07-0.25-0.26-0.4-0.45-0.56
			c-0.33-0.27-0.8-0.5-0.52-1.24c0.23-0.6,0.92-0.63,0.92-0.63c0.27-0.03,0.51,0.05,0.71,0.23c0.26,0.24,0.32,0.55,0.27,0.89
			c-0.04,0.31-0.15,0.58-0.21,0.88c-0.07,0.35,0.12,0.71,0.48,0.72c0.47,0.02,0.61-0.35,0.67-0.58c0.08-0.34,0.2-0.65,0.51-0.85
			c0.45-0.28,1.07-0.22,1.36,0.32c0.23,0.43,0.16,1.02-0.2,1.35c-0.16,0.15-0.35,0.2-0.55,0.2c-0.29,0-0.59-0.01-0.86,0.13
			c-0.19,0.09-0.27,0.25-0.27,0.45c0,0.2,0.1,0.33,0.27,0.41c0.32,0.16,0.67,0.19,1.01,0.25c0.5,0.09,0.93,0.26,1.21,0.72
			c0,0,0,0.01,0.01,0.01C100.92,34.55,100.59,35.33,99.96,35.36z"/>
		<path class="st0" d="M131,39.39l-0.33,0.04c-0.03-0.27,0.11-0.67,0.5-0.73c0.05-0.01,0.07-0.07,0.03-0.1
			c-0.58-0.55-1.68-0.27-2.13,0.73c-0.34-0.5-0.8-1.18-0.8-1.18l-0.73,0.6c0,0,0.42,0.37,0.95,0.83c-0.78-0.3-1.88,0.14-2.36,1.05
			c-0.02,0.05,0.02,0.1,0.07,0.08c0.45-0.15,0.89-0.11,1.63-0.18c-0.12,0.04-0.29,0.15-0.43,0.27c-1.47,1.13-2.25,2.87-1.73,5.01
			c0.73,3.03,3.91,4.28,6.77,3.59c2.86-0.69,5.05-3.23,4.32-6.27C136.1,40.4,133.74,39.04,131,39.39z"/>
		<path class="st0" d="M159.04,38.51c-0.24-0.24-0.52-0.36-0.86-0.36c-0.34,0-0.62,0.12-0.86,0.36c-0.23,0.24-0.35,0.53-0.35,0.87
			c0,0.34,0.12,0.63,0.35,0.87c0.24,0.24,0.52,0.35,0.86,0.35c0.34,0,0.63-0.12,0.86-0.35c0.24-0.24,0.36-0.53,0.36-0.87
			C159.4,39.04,159.28,38.75,159.04,38.51z M158.81,40.02c-0.17,0.17-0.38,0.26-0.63,0.26c-0.24,0-0.45-0.08-0.62-0.26
			c-0.17-0.17-0.25-0.39-0.25-0.64c0-0.25,0.08-0.47,0.25-0.64c0.17-0.18,0.38-0.27,0.62-0.27c0.25,0,0.46,0.09,0.63,0.27
			c0.17,0.17,0.26,0.39,0.26,0.64C159.06,39.63,158.98,39.84,158.81,40.02z"/>
		<path class="st0" d="M158.71,39.19c0-0.27-0.21-0.4-0.47-0.4h-0.5v1.11h0.3V39.6h0.15l0.21,0.31h0.34l-0.26-0.35
			C158.63,39.48,158.71,39.36,158.71,39.19z M158.18,39.33h-0.15v-0.28h0.15c0.15,0,0.22,0.04,0.22,0.13
			C158.4,39.28,158.33,39.33,158.18,39.33z"/>
	</g>
</g>
</svg>
